# xmcd
#
# Track frame offsets: 
#        150
#        10307
#        23710
#        33330
#        54570
#        68200
#        82000
#        87467
#        100115
#        117612
#        128527
#        136672
#        148747
#        163290
#        174532
#        184977
#        199822
#        211827
#        225645
#        242235
#        251307
#        265152
#        277682
#        292377
#        305447
#        317232
#
# Disc length: 4419 seconds
#
# Revision: 1
# Processed by: cddbd v1.5.2PL0 Copyright (c) Steve Scherf et al.
# Submitted via: ExactAudioCopy v0.99pb1
#
DISCID=7d11411a
DTITLE=The Fabulous Thunderbirds - Portfolio
DYEAR=1900
DGENRE=
TTITLE0=The Crawl
TTITLE1=She's Tuff
TTITLE2=That's Enough Of That Stuff
TTITLE3=Full Time Lover
TTITLE4=Sugar-Coated Love
TTITLE5=Wait On Time
TTITLE6=Los Fabulosos Thunderbirds
TTITLE7=I'm A Good Man
TTITLE8=Scratch My Back
TTITLE9=Walkin' To My Baby
TTITLE10=You Ain't Nothing But Fine
TTITLE11=Marked Deck
TTITLE12=Learn To Treat Me Right
TTITLE13=I Believe I'm In Love
TTITLE14=How Do You Spell Love
TTITLE15=Mathilda
TTITLE16=One's Too Many
TTITLE17=Dirty Work
TTITLE18=Tip On In
TTITLE19=Cherry Pink and Apple Blossom White
TTITLE20=Can't Tear It Up Enuff
TTITLE21=Give Me All Your Lovin'
TTITLE22=The Monkey
TTITLE23=My Babe
TTITLE24=Diddy Wah Diddy
TTITLE25=Roll, Roll, Roll
EXTD=
EXTT0=
EXTT1=
EXTT2=
EXTT3=
EXTT4=
EXTT5=
EXTT6=
EXTT7=
EXTT8=
EXTT9=
EXTT10=
EXTT11=
EXTT12=
EXTT13=
EXTT14=
EXTT15=
EXTT16=
EXTT17=
EXTT18=
EXTT19=
EXTT20=
EXTT21=
EXTT22=
EXTT23=
EXTT24=
EXTT25=
PLAYORDER=
